<svg width="175" height="53" viewBox="0 0 175 53" fill="none" xmlns="http://www.w3.org/2000/svg">
<path d="M1.52344 15.0869C1.52344 13.4333 1.98568 12.0465 2.91016 10.9268C3.83464 9.80697 5.04557 9.24707 6.54297 9.24707C8.05339 9.24707 9.26432 9.81348 10.1758 10.9463C11.1003 12.0661 11.5625 13.4463 11.5625 15.0869C11.5625 16.7145 11.1003 18.0947 10.1758 19.2275C9.26432 20.3473 8.05339 20.9072 6.54297 20.9072C5.04557 20.9072 3.83464 20.3473 2.91016 19.2275C1.98568 18.1077 1.52344 16.7275 1.52344 15.0869ZM2.57812 15.0674C2.57812 16.3434 2.92969 17.4762 3.63281 18.4658C4.34896 19.4424 5.31901 19.9307 6.54297 19.9307C7.76693 19.9307 8.73047 19.4489 9.43359 18.4854C10.1497 17.5088 10.5078 16.3695 10.5078 15.0674C10.5078 13.7523 10.1497 12.6195 9.43359 11.6689C8.71745 10.7054 7.75391 10.2236 6.54297 10.2236C5.29297 10.2236 4.31641 10.7184 3.61328 11.708C2.92318 12.6846 2.57812 13.8044 2.57812 15.0674ZM24.1711 9.5791H28.5461V10.4971H26.5539V16.0049C26.5539 17.1898 26.6776 18.0361 26.925 18.5439C27.3677 19.4684 28.2401 19.9307 29.5422 19.9307C30.8964 19.9307 31.7818 19.5205 32.1984 18.7002C32.4589 18.2314 32.5891 17.3981 32.5891 16.2002V10.4971H30.5969V9.5791H34.9719V10.4971H33.5656V16.2002C33.5656 17.7367 33.3312 18.8304 32.8625 19.4814C32.6021 19.846 32.1854 20.1781 31.6125 20.4775C31.0396 20.764 30.356 20.9072 29.5617 20.9072C28.0643 20.9072 26.9576 20.3994 26.2414 19.3838C25.7987 18.7458 25.5773 17.6195 25.5773 16.0049V10.4971H24.1711V9.5791ZM47.893 9.5791H57.268L57.6 14.1885L56.6625 14.3057L56.3891 10.4971H53.0687V19.6572H55.432V20.5752H49.7289V19.6572H52.0922V10.4971H48.7719L48.4984 14.3057L47.5609 14.1885L47.893 9.5791ZM70.5797 15.0869C70.5797 13.4333 71.0419 12.0465 71.9664 10.9268C72.8909 9.80697 74.1018 9.24707 75.5992 9.24707C77.1096 9.24707 78.3206 9.81348 79.232 10.9463C80.1565 12.0661 80.6188 13.4463 80.6188 15.0869C80.6188 16.7145 80.1565 18.0947 79.232 19.2275C78.3206 20.3473 77.1096 20.9072 75.5992 20.9072C74.1018 20.9072 72.8909 20.3473 71.9664 19.2275C71.0419 18.1077 70.5797 16.7275 70.5797 15.0869ZM71.6344 15.0674C71.6344 16.3434 71.9859 17.4762 72.6891 18.4658C73.4052 19.4424 74.3753 19.9307 75.5992 19.9307C76.8232 19.9307 77.7867 19.4489 78.4898 18.4854C79.206 17.5088 79.5641 16.3695 79.5641 15.0674C79.5641 13.7523 79.206 12.6195 78.4898 11.6689C77.7737 10.7054 76.8102 10.2236 75.5992 10.2236C74.3492 10.2236 73.3727 10.7184 72.6695 11.708C71.9794 12.6846 71.6344 13.8044 71.6344 15.0674ZM94.1648 9.5791H103.325L103.423 13.0947H102.544L102.309 10.4971H96.7234V14.3057H99.8875V12.8799H100.786V16.6299H99.8875V15.2236H96.7234V19.6572H99.2625V20.5752H94.1648V19.6572H95.7469V10.4971H94.1648V9.5791ZM116.949 9.5791H126.324L126.656 14.1885L125.719 14.3057L125.445 10.4971H122.125V19.6572H124.488V20.5752H118.785V19.6572H121.148V10.4971H117.828L117.555 14.3057L116.617 14.1885L116.949 9.5791ZM139.558 9.5791H143.464V10.4971H141.999V14.4424H147.312V10.4971H145.847V9.5791H149.773V10.4971H148.288V19.6572H149.773V20.5752H145.847V19.6572H147.312V15.3604H141.999V19.6572H143.464V20.5752H139.558V19.6572H141.023V10.4971H139.558V9.5791ZM162.928 9.5791H172.205L172.284 13.1729H171.385L171.19 10.4971H165.565V14.3057H168.729V12.8799H169.627V16.6299H168.729V15.2236H165.565V19.6572H171.385L171.483 16.9814H172.381V20.5752H162.928V19.6572H164.588V10.4971H162.928V9.5791ZM9.70703 35.3643H10.5859C10.4688 35.8721 10.4102 36.3408 10.4102 36.7705C10.4102 37.3695 10.4688 38.1442 10.5859 39.0947L9.70703 39.251C9.60286 38.4827 9.40104 37.8708 9.10156 37.415C8.58073 36.6208 7.75391 36.2236 6.62109 36.2236C5.68359 36.2236 4.95443 36.4645 4.43359 36.9463C3.92578 37.4281 3.67188 37.9554 3.67188 38.5283C3.67188 38.945 3.76953 39.2965 3.96484 39.583C4.17318 39.8695 4.45964 40.0843 4.82422 40.2275C5.20182 40.3577 5.50781 40.4489 5.74219 40.501C5.97656 40.54 6.27604 40.5791 6.64062 40.6182C7.46094 40.7093 8.0599 40.8005 8.4375 40.8916C8.82812 40.9697 9.17969 41.113 9.49219 41.3213C10.2995 41.8682 10.7031 42.6234 10.7031 43.5869C10.7031 44.6416 10.2995 45.4619 9.49219 46.0479C8.6849 46.6208 7.75391 46.9072 6.69922 46.9072C5.63151 46.9072 4.73958 46.6077 4.02344 46.0088C3.97135 45.9567 3.91927 45.9307 3.86719 45.9307C3.80208 45.9307 3.73698 45.9827 3.67188 46.0869C3.61979 46.2432 3.5612 46.5361 3.49609 46.9658H2.61719C2.73438 46.4059 2.79297 45.8265 2.79297 45.2275C2.79297 44.9411 2.73438 44.251 2.61719 43.1572H3.49609C3.65234 43.9385 3.8737 44.5179 4.16016 44.8955C4.68099 45.5856 5.48177 45.9307 6.5625 45.9307C7.64323 45.9307 8.42448 45.7028 8.90625 45.2471C9.40104 44.7913 9.64844 44.264 9.64844 43.665C9.64844 43.3395 9.58333 43.0596 9.45312 42.8252C9.32292 42.5778 9.16667 42.389 8.98438 42.2588C8.8151 42.1156 8.58724 41.9984 8.30078 41.9072C8.02734 41.8161 7.79948 41.7575 7.61719 41.7314C7.4349 41.7054 7.20703 41.6794 6.93359 41.6533C6.49089 41.6143 6.13281 41.5752 5.85938 41.5361C5.59896 41.4971 5.23438 41.4059 4.76562 41.2627C4.3099 41.1195 3.94531 40.9502 3.67188 40.7549C3.39844 40.5596 3.15104 40.2796 2.92969 39.915C2.72135 39.5374 2.61719 39.1012 2.61719 38.6064C2.61719 37.695 2.98828 36.9072 3.73047 36.2432C4.48568 35.5791 5.41016 35.2471 6.50391 35.2471C7.44141 35.2471 8.2487 35.514 8.92578 36.0479C9.17318 36.2301 9.32292 36.3213 9.375 36.3213C9.45312 36.3213 9.50521 36.2887 9.53125 36.2236C9.55729 36.1585 9.60286 35.9567 9.66797 35.6182C9.69401 35.514 9.70703 35.4294 9.70703 35.3643ZM25.9094 35.5791H30.1086L34.2297 45.6572H35.2258V46.5752H31.2219V45.6572H33.2141L32.1008 42.9424H27.0031L25.9094 45.6572H27.9016V46.5752H23.8977V45.6572H24.9328L28.7023 36.4971H25.9094V35.5791ZM31.7687 42.083L29.5617 36.7314L27.3547 42.083H31.7687ZM47.268 35.5791H50.6078L55.7445 45.7549H56.0961V36.4971H53.9086V35.5791H58.2641V36.4971H56.9945V46.8291H55.2562L50.0219 36.4971H49.6898V45.6572H51.8969V46.5752H47.268V45.6572H48.7914V36.4971H47.268V35.5791ZM70.4039 35.5791H75.2867C76.2633 35.5791 77.051 35.6702 77.65 35.8525C78.249 36.0348 78.7958 36.432 79.2906 37.0439C80.0979 38.0465 80.5016 39.3226 80.5016 40.8721C80.5016 42.8903 79.9612 44.4137 78.8805 45.4424C78.0862 46.1976 76.8622 46.5752 75.2086 46.5752H70.4039V45.6572H71.9469V36.4971H70.4039V35.5791ZM75.3063 36.4971H72.9234V45.6572H75.2086C76.5367 45.6572 77.5133 45.3512 78.1383 44.7393C79.0107 43.8669 79.4469 42.5973 79.4469 40.9307C79.4469 39.6676 79.1409 38.613 78.5289 37.7666C78.1513 37.2327 77.7281 36.8877 77.2594 36.7314C76.7906 36.5752 76.1396 36.4971 75.3063 36.4971ZM117.379 35.5791H122.711C123.974 35.5791 124.911 35.8525 125.523 36.3994C126.135 36.9463 126.441 37.6169 126.441 38.4111C126.441 39.4919 125.927 40.2992 124.898 40.833C126.383 41.2757 127.125 42.1872 127.125 43.5674C127.125 44.1012 126.995 44.5895 126.734 45.0322C126.487 45.4749 126.155 45.807 125.738 46.0283C125.322 46.2497 124.905 46.3994 124.488 46.4775C124.072 46.5426 123.421 46.5752 122.535 46.5752H117.379V45.6572H119V36.4971H117.379V35.5791ZM122.672 36.4971H119.977V40.4033H122.574C123.173 40.4033 123.681 40.3317 124.098 40.1885C124.514 40.0322 124.807 39.8369 124.977 39.6025C125.146 39.3682 125.263 39.1533 125.328 38.958C125.393 38.7627 125.426 38.5674 125.426 38.3721C125.426 37.9424 125.309 37.5843 125.074 37.2979C124.853 37.0114 124.553 36.8226 124.176 36.7314C123.798 36.6273 123.505 36.5622 123.297 36.5361C123.102 36.5101 122.893 36.4971 122.672 36.4971ZM122.418 41.3213H119.977V45.6572H122.496C122.822 45.6572 123.076 45.6572 123.258 45.6572C123.44 45.6442 123.694 45.6182 124.02 45.5791C124.358 45.54 124.625 45.4814 124.82 45.4033C125.029 45.3122 125.243 45.195 125.465 45.0518C125.686 44.8955 125.849 44.6937 125.953 44.4463C126.057 44.1989 126.109 43.9059 126.109 43.5674C126.109 42.7992 125.777 42.2327 125.113 41.8682C124.449 41.5036 123.551 41.3213 122.418 41.3213ZM140.359 41.0869C140.359 39.4333 140.821 38.0465 141.745 36.9268C142.67 35.807 143.881 35.2471 145.378 35.2471C146.889 35.2471 148.099 35.8135 149.011 36.9463C149.935 38.0661 150.398 39.4463 150.398 41.0869C150.398 42.7145 149.935 44.0947 149.011 45.2275C148.099 46.3473 146.889 46.9072 145.378 46.9072C143.881 46.9072 142.67 46.3473 141.745 45.2275C140.821 44.1077 140.359 42.7275 140.359 41.0869ZM141.413 41.0674C141.413 42.3434 141.765 43.4762 142.468 44.4658C143.184 45.4424 144.154 45.9307 145.378 45.9307C146.602 45.9307 147.566 45.4489 148.269 44.4854C148.985 43.5088 149.343 42.3695 149.343 41.0674C149.343 39.7523 148.985 38.6195 148.269 37.6689C147.553 36.7054 146.589 36.2236 145.378 36.2236C144.128 36.2236 143.152 36.7184 142.448 37.708C141.758 38.6846 141.413 39.8044 141.413 41.0674ZM163.553 35.5791H167.342V36.4971H165.741L168.416 40.0713L171.151 36.4971H169.666V35.5791H173.241V36.4971H172.245L168.963 40.7939L172.596 45.6572H173.612V46.5752H169.666V45.6572H171.424L168.416 41.5166L165.272 45.6572H167.342V46.5752H163.182V45.6572H164.178L167.87 40.7939L164.588 36.4971H163.553V35.5791Z" fill="#030211"/>
<rect x="93.9092" y="35.7881" width="11.0043" height="9.03674" stroke="#030211"/>
<rect x="95.4307" y="37.3311" width="7.97269" height="5.96338" fill="#030211"/>
</svg>
