<svg width="206" height="53" viewBox="0 0 206 53" fill="none" xmlns="http://www.w3.org/2000/svg">
<path d="M61.1029 15.5126H63.8029C63.8562 15.9659 64.0629 16.3792 64.4229 16.7526C64.7962 17.1126 65.2829 17.3992 65.8829 17.6126C66.4829 17.8126 67.1562 17.9126 67.9029 17.9126C68.5829 17.9126 69.1429 17.8392 69.5829 17.6926C70.0229 17.5459 70.3495 17.3392 70.5629 17.0726C70.7762 16.8059 70.8829 16.4859 70.8829 16.1126C70.8829 15.7526 70.7495 15.4792 70.4829 15.2926C70.2162 15.0926 69.7962 14.9326 69.2229 14.8126C68.6495 14.6792 67.8962 14.5459 66.9629 14.4126C66.2295 14.3059 65.5362 14.1592 64.8829 13.9726C64.2295 13.7726 63.6495 13.5192 63.1429 13.2126C62.6495 12.9059 62.2562 12.5326 61.9629 12.0926C61.6829 11.6392 61.5429 11.1059 61.5429 10.4926C61.5429 9.73256 61.7562 9.06589 62.1829 8.49256C62.6229 7.91922 63.2695 7.47256 64.1229 7.15256C64.9762 6.83256 66.0229 6.67256 67.2629 6.67256C69.1295 6.67256 70.5629 7.07256 71.5629 7.87256C72.5762 8.65922 73.0695 9.74589 73.0429 11.1326H70.4429C70.3895 10.3459 70.0562 9.77922 69.4429 9.43256C68.8429 9.08589 68.0829 8.91256 67.1629 8.91256C66.3095 8.91256 65.6029 9.03922 65.0429 9.29256C64.4962 9.54589 64.2229 9.97922 64.2229 10.5926C64.2229 10.8326 64.2895 11.0459 64.4229 11.2326C64.5562 11.4059 64.7829 11.5592 65.1029 11.6926C65.4229 11.8259 65.8562 11.9526 66.4029 12.0726C66.9495 12.1926 67.6295 12.3126 68.4429 12.4326C69.2029 12.5392 69.8895 12.6859 70.5029 12.8726C71.1295 13.0459 71.6629 13.2792 72.1029 13.5726C72.5562 13.8526 72.9029 14.2126 73.1429 14.6526C73.3829 15.0926 73.5029 15.6326 73.5029 16.2726C73.5029 17.0592 73.2962 17.7459 72.8829 18.3326C72.4829 18.9059 71.8562 19.3526 71.0029 19.6726C70.1629 19.9926 69.0695 20.1526 67.7229 20.1526C66.7629 20.1526 65.9162 20.0526 65.1829 19.8526C64.4495 19.6392 63.8162 19.3592 63.2829 19.0126C62.7495 18.6659 62.3162 18.2859 61.9829 17.8726C61.6495 17.4592 61.4095 17.0459 61.2629 16.6326C61.1295 16.2192 61.0762 15.8459 61.1029 15.5126ZM86.0096 6.93256H99.6496V9.15256H86.0096V6.93256ZM91.5096 8.87256H94.1696V19.8726H91.5096V8.87256ZM124.763 14.1526V6.93256H127.423V14.4326C127.423 15.2859 127.296 16.0326 127.043 16.6726C126.803 17.3126 126.456 17.8526 126.003 18.2926C125.55 18.7326 125.016 19.0926 124.403 19.3726C123.803 19.6392 123.143 19.8326 122.423 19.9526C121.716 20.0726 120.97 20.1326 120.183 20.1326C119.37 20.1326 118.596 20.0726 117.863 19.9526C117.13 19.8326 116.456 19.6392 115.843 19.3726C115.243 19.0926 114.723 18.7326 114.283 18.2926C113.843 17.8526 113.496 17.3126 113.243 16.6726C113.003 16.0326 112.883 15.2859 112.883 14.4326V6.93256H115.543V14.1526C115.543 15.1659 115.743 15.9392 116.143 16.4726C116.543 16.9926 117.09 17.3526 117.783 17.5526C118.49 17.7392 119.29 17.8326 120.183 17.8326C121.05 17.8326 121.823 17.7392 122.503 17.5526C123.196 17.3526 123.743 16.9926 124.143 16.4726C124.556 15.9392 124.763 15.1659 124.763 14.1526ZM149.2 6.93256C150.654 6.93256 151.867 7.10589 152.84 7.45256C153.814 7.79922 154.587 8.27256 155.16 8.87256C155.747 9.45922 156.16 10.1392 156.4 10.9126C156.654 11.6859 156.78 12.4992 156.78 13.3526C156.78 14.2059 156.64 15.0259 156.36 15.8126C156.094 16.5992 155.66 17.2992 155.06 17.9126C154.474 18.5126 153.694 18.9926 152.72 19.3526C151.76 19.6992 150.587 19.8726 149.2 19.8726H141.8V6.93256H149.2ZM144.46 17.5926H149.14C150.1 17.5926 150.894 17.4792 151.52 17.2526C152.16 17.0126 152.667 16.6926 153.04 16.2926C153.414 15.8926 153.68 15.4392 153.84 14.9326C154 14.4259 154.08 13.8992 154.08 13.3526C154.08 12.8059 154 12.2859 153.84 11.7926C153.68 11.2992 153.414 10.8592 153.04 10.4726C152.667 10.0859 152.16 9.77922 151.52 9.55256C150.894 9.32589 150.1 9.21256 149.14 9.21256H144.46V17.5926ZM171.058 6.93256H173.718V19.8726H171.058V6.93256ZM196.163 20.1326C194.443 20.1326 192.97 19.8659 191.743 19.3326C190.53 18.7859 189.596 18.0126 188.943 17.0126C188.303 16.0126 187.983 14.8126 187.983 13.4126C187.983 11.9992 188.303 10.7926 188.943 9.79256C189.596 8.79256 190.53 8.02589 191.743 7.49256C192.97 6.94589 194.443 6.67256 196.163 6.67256C197.896 6.67256 199.37 6.94589 200.583 7.49256C201.796 8.02589 202.723 8.79256 203.363 9.79256C204.016 10.7926 204.343 11.9992 204.343 13.4126C204.343 14.8126 204.016 16.0126 203.363 17.0126C202.723 18.0126 201.796 18.7859 200.583 19.3326C199.37 19.8659 197.896 20.1326 196.163 20.1326ZM196.163 17.8326C197.23 17.8326 198.163 17.6726 198.963 17.3526C199.776 17.0326 200.41 16.5459 200.863 15.8926C201.33 15.2392 201.563 14.4126 201.563 13.4126C201.563 12.4126 201.33 11.5859 200.863 10.9326C200.41 10.2792 199.776 9.79256 198.963 9.47256C198.163 9.13922 197.23 8.97256 196.163 8.97256C195.11 8.97256 194.17 9.13922 193.343 9.47256C192.516 9.79256 191.87 10.2792 191.403 10.9326C190.936 11.5859 190.703 12.4126 190.703 13.4126C190.703 14.4126 190.936 15.2392 191.403 15.8926C191.87 16.5459 192.516 17.0326 193.343 17.3526C194.17 17.6726 195.11 17.8326 196.163 17.8326ZM69.4029 44.1326C68.2029 44.1326 67.1162 43.9926 66.1429 43.7126C65.1829 43.4326 64.3495 43.0126 63.6429 42.4526C62.9495 41.8926 62.4162 41.1992 62.0429 40.3726C61.6695 39.5459 61.4829 38.5926 61.4829 37.5126C61.4829 36.4192 61.6762 35.4526 62.0629 34.6126C62.4629 33.7592 63.0229 33.0392 63.7429 32.4526C64.4762 31.8659 65.3429 31.4259 66.3429 31.1326C67.3562 30.8259 68.4762 30.6726 69.7029 30.6726C71.1562 30.6726 72.4095 30.8792 73.4629 31.2926C74.5162 31.6926 75.3429 32.2592 75.9429 32.9926C76.5562 33.7259 76.9029 34.5992 76.9829 35.6126H74.4229C74.2495 35.0792 73.9629 34.6192 73.5629 34.2326C73.1762 33.8326 72.6629 33.5259 72.0229 33.3126C71.3829 33.0859 70.6095 32.9726 69.7029 32.9726C68.5429 32.9726 67.5495 33.1592 66.7229 33.5326C65.9095 33.9059 65.2895 34.4326 64.8629 35.1126C64.4362 35.7926 64.2229 36.5926 64.2229 37.5126C64.2229 38.4059 64.4095 39.1792 64.7829 39.8326C65.1562 40.4726 65.7295 40.9659 66.5029 41.3126C67.2895 41.6592 68.2895 41.8326 69.5029 41.8326C70.4362 41.8326 71.2562 41.7126 71.9629 41.4726C72.6829 41.2192 73.2829 40.8859 73.7629 40.4726C74.2429 40.0459 74.5829 39.5726 74.7829 39.0526L75.8229 38.6726C75.6495 40.3926 74.9962 41.7326 73.8629 42.6926C72.7429 43.6526 71.2562 44.1326 69.4029 44.1326ZM75.1429 43.8726C75.1429 43.4592 75.1695 42.9859 75.2229 42.4526C75.2762 41.9059 75.3429 41.3592 75.4229 40.8126C75.5029 40.2526 75.5762 39.7392 75.6429 39.2726H69.7229V37.5726H77.4429V43.8726H75.1429ZM95.3441 43.8726V30.9326H104.124C105.124 30.9326 105.991 31.0726 106.724 31.3526C107.471 31.6192 108.051 32.0459 108.464 32.6326C108.877 33.2059 109.084 33.9459 109.084 34.8526C109.084 35.4659 108.977 35.9859 108.764 36.4126C108.551 36.8392 108.251 37.1859 107.864 37.4526C107.491 37.7192 107.057 37.9259 106.564 38.0726C106.071 38.2059 105.544 38.2926 104.984 38.3326L104.704 38.1726C105.637 38.1859 106.404 38.2659 107.004 38.4126C107.604 38.5459 108.051 38.7992 108.344 39.1726C108.651 39.5326 108.804 40.0726 108.804 40.7926V43.8726H106.144V40.9726C106.144 40.4792 106.057 40.0992 105.884 39.8326C105.711 39.5526 105.397 39.3592 104.944 39.2526C104.504 39.1459 103.864 39.0926 103.024 39.0926H98.0041V43.8726H95.3441ZM98.0041 37.0126H104.124C104.871 37.0126 105.437 36.8326 105.824 36.4726C106.224 36.1126 106.424 35.6259 106.424 35.0126C106.424 34.4259 106.224 33.9792 105.824 33.6726C105.437 33.3659 104.871 33.2126 104.124 33.2126H98.0041V37.0126ZM129.628 38.4726V41.6526H139.608V43.8726H126.968V30.9326H139.588V33.1526H129.628V36.3726H137.788V38.4726H129.628ZM160.099 38.4726V41.6526H170.079V43.8726H157.439V30.9326H170.059V33.1526H160.099V36.3726H168.259V38.4726H160.099ZM201.03 41.2326L200.19 41.5726V30.9326H202.85V43.8726H200.19L189.73 33.6526L190.57 33.3126V43.8726H187.91V30.9326H190.57L201.03 41.2326Z" fill="#030211"/>
<path d="M25.8043 0.770996L27.283 18.1893L34.6299 2.32719L30.062 19.2007L42.391 6.80806L32.3275 21.1017L48.1515 13.6732L33.8062 23.6629L51.2166 22.0944L34.3197 26.5753L51.2166 31.0562L33.8062 29.4878L48.1515 39.4775L32.3275 32.0489L42.391 46.3426L30.062 33.9499L34.6299 50.8234L27.283 34.9614L25.8043 52.3796L24.3256 34.9614L16.9787 50.8234L21.5466 33.9499L9.21762 46.3426L19.2811 32.0489L3.45712 39.4775L17.8024 29.4878L0.392025 31.0562L17.2889 26.5753L0.392025 22.0944L17.8024 23.6629L3.45712 13.6732L19.2811 21.1017L9.21762 6.80806L21.5466 19.2007L16.9787 2.32719L24.3256 18.1893L25.8043 0.770996Z" fill="#030211"/>
</svg>
