<svg width="95" height="90" viewBox="0 0 95 90" fill="none" xmlns="http://www.w3.org/2000/svg">
<path d="M16.4809 20.5112H20.3869V59.0752H15.7369L7.73885 29.1912V59.0752H3.83285V20.5112H8.79285L16.4809 49.3412V20.5112ZM28.0719 20.5112H34.3959C37.6613 20.5112 39.2939 22.1439 39.2939 25.4092V54.1772C39.2939 57.4425 37.6613 59.0752 34.3959 59.0752H28.0719C24.8066 59.0752 23.1739 57.4425 23.1739 54.1772V25.4092C23.1739 22.1439 24.8066 20.5112 28.0719 20.5112ZM35.0779 53.4952V26.0912C35.0779 25.2645 34.9539 24.7479 34.7059 24.5412C34.4579 24.2932 33.9413 24.1692 33.1559 24.1692H29.3119C28.5266 24.1692 28.0099 24.2932 27.7619 24.5412C27.5139 24.7479 27.3899 25.2645 27.3899 26.0912V53.4952C27.3899 54.3219 27.5139 54.8592 27.7619 55.1072C28.0099 55.3139 28.5266 55.4172 29.3119 55.4172H33.1559C33.9413 55.4172 34.4579 55.3139 34.7059 55.1072C34.9539 54.8592 35.0779 54.3219 35.0779 53.4952ZM46.3217 42.9552V59.0752H42.1057V20.5112H53.3277C56.5931 20.5112 58.2257 22.1439 58.2257 25.4092V38.0572C58.2257 40.9919 56.9444 42.6039 54.3817 42.8932L60.2097 59.0752H55.6217L49.9797 42.9552H46.3217ZM46.3217 24.1692V39.2972H52.0877C52.9144 39.2972 53.4311 39.1939 53.6377 38.9872C53.8857 38.7392 54.0097 38.2019 54.0097 37.3752V26.0912C54.0097 25.2645 53.8857 24.7479 53.6377 24.5412C53.4311 24.2932 52.9144 24.1692 52.0877 24.1692H46.3217ZM74.4857 20.5112V24.1692H68.2857V59.0752H64.0697V24.1692H57.8697V20.5112H74.4857ZM79.0936 20.5112H85.4176C88.6829 20.5112 90.3156 22.1439 90.3156 25.4092V54.1772C90.3156 57.4425 88.6829 59.0752 85.4176 59.0752H79.0936C75.8283 59.0752 74.1956 57.4425 74.1956 54.1772V25.4092C74.1956 22.1439 75.8283 20.5112 79.0936 20.5112ZM86.0996 53.4952V26.0912C86.0996 25.2645 85.9756 24.7479 85.7276 24.5412C85.4796 24.2932 84.9629 24.1692 84.1776 24.1692H80.3336C79.5483 24.1692 79.0316 24.2932 78.7836 24.5412C78.5356 24.7479 78.4116 25.2645 78.4116 26.0912V53.4952C78.4116 54.3219 78.5356 54.8592 78.7836 55.1072C79.0316 55.3139 79.5483 55.4172 80.3336 55.4172H84.1776C84.9629 55.4172 85.4796 55.3139 85.7276 55.1072C85.9756 54.8592 86.0996 54.3219 86.0996 53.4952Z" fill="#030211"/>
</svg>
