<svg width="186" height="49" viewBox="0 0 186 49" fill="none" xmlns="http://www.w3.org/2000/svg">
<path d="M62.7852 13.2268V17.0842C62.7852 17.9176 62.8763 18.4351 63.0586 18.637C63.306 18.9234 63.6803 19.0667 64.1816 19.0667H64.6895V19.428H59.0156V19.0667H59.5137C60.0736 19.0667 60.474 18.8844 60.7148 18.5198C60.8451 18.318 60.9102 17.8394 60.9102 17.0842V8.52954C60.9102 7.69621 60.8223 7.17863 60.6465 6.97681C60.3926 6.69035 60.015 6.54712 59.5137 6.54712H59.0156V6.18579H63.8691C65.054 6.18579 65.9883 6.30949 66.6719 6.55688C67.3555 6.79777 67.9316 7.20793 68.4004 7.78735C68.8691 8.36678 69.1035 9.05363 69.1035 9.8479C69.1035 10.9286 68.7454 11.8075 68.0293 12.4846C67.3197 13.1617 66.3138 13.5002 65.0117 13.5002C64.6927 13.5002 64.3477 13.4775 63.9766 13.4319C63.6055 13.3863 63.2083 13.318 62.7852 13.2268ZM62.7852 12.6702C63.1302 12.7353 63.4362 12.7841 63.7031 12.8167C63.9701 12.8492 64.1979 12.8655 64.3867 12.8655C65.0638 12.8655 65.6465 12.6051 66.1348 12.0842C66.6296 11.5569 66.877 10.8765 66.877 10.0432C66.877 9.4703 66.7598 8.9397 66.5254 8.45142C66.291 7.95662 65.959 7.58879 65.5293 7.3479C65.0996 7.1005 64.6113 6.97681 64.0645 6.97681C63.7324 6.97681 63.306 7.03866 62.7852 7.16235V12.6702ZM88.4309 5.88306C90.1496 5.88306 91.6372 6.53735 92.8937 7.84595C94.1568 9.14803 94.7883 10.7756 94.7883 12.7288C94.7883 14.7405 94.1535 16.4104 92.884 17.7385C91.6145 19.0667 90.078 19.7307 88.2746 19.7307C86.4517 19.7307 84.9185 19.0829 83.675 17.7874C82.438 16.4918 81.8195 14.8153 81.8195 12.7581C81.8195 10.6552 82.5357 8.9397 83.968 7.61157C85.2115 6.45923 86.6991 5.88306 88.4309 5.88306ZM88.2453 6.59595C87.0604 6.59595 86.1099 7.0354 85.3937 7.91431C84.5018 9.00806 84.0559 10.6096 84.0559 12.719C84.0559 14.8805 84.5181 16.5439 85.4426 17.7092C86.1522 18.5946 87.0897 19.0374 88.2551 19.0374C89.4986 19.0374 90.524 18.5523 91.3312 17.5823C92.1451 16.6122 92.552 15.0823 92.552 12.9924C92.552 10.7268 92.106 9.03735 91.2141 7.92407C90.4979 7.03866 89.5083 6.59595 88.2453 6.59595ZM113.041 19.0667V19.428H107.368V19.0667H107.836C108.383 19.0667 108.78 18.9071 109.028 18.5881C109.184 18.3798 109.262 17.8785 109.262 17.0842V8.52954C109.262 7.85897 109.22 7.41626 109.135 7.20142C109.07 7.03866 108.937 6.89868 108.735 6.78149C108.448 6.62524 108.149 6.54712 107.836 6.54712H107.368V6.18579H113.041V6.54712H112.563C112.023 6.54712 111.629 6.70662 111.381 7.02563C111.218 7.23397 111.137 7.73527 111.137 8.52954V17.0842C111.137 17.7548 111.179 18.1975 111.264 18.4124C111.329 18.5751 111.466 18.7151 111.674 18.8323C111.954 18.9885 112.25 19.0667 112.563 19.0667H113.041ZM124.566 6.18579H128.16L136.255 16.1174V8.48071C136.255 7.66691 136.164 7.1591 135.982 6.95728C135.741 6.68384 135.36 6.54712 134.839 6.54712H134.38V6.18579H138.99V6.54712H138.521C137.961 6.54712 137.564 6.71639 137.33 7.05493C137.186 7.26326 137.115 7.73853 137.115 8.48071V19.6428H136.763L128.033 8.97876V17.1331C128.033 17.9469 128.121 18.4547 128.296 18.6565C128.544 18.9299 128.925 19.0667 129.439 19.0667H129.908V19.428H125.298V19.0667H125.757C126.324 19.0667 126.724 18.8974 126.959 18.5588C127.102 18.3505 127.173 17.8752 127.173 17.1331V7.92407C126.789 7.47485 126.496 7.17863 126.295 7.0354C126.099 6.89217 125.81 6.75871 125.425 6.63501C125.237 6.57642 124.95 6.54712 124.566 6.54712V6.18579ZM162.155 6.18579L162.302 9.29126H161.93C161.859 8.74438 161.761 8.35376 161.637 8.11938C161.436 7.74178 161.165 7.46509 160.827 7.28931C160.495 7.10701 160.055 7.01587 159.509 7.01587H157.643V17.1331C157.643 17.9469 157.731 18.4547 157.907 18.6565C158.154 18.9299 158.535 19.0667 159.05 19.0667H159.509V19.428H153.893V19.0667H154.362C154.922 19.0667 155.319 18.8974 155.554 18.5588C155.697 18.3505 155.768 17.8752 155.768 17.1331V7.01587H154.177C153.558 7.01587 153.119 7.06144 152.858 7.15259C152.52 7.27629 152.23 7.51392 151.989 7.86548C151.748 8.21704 151.605 8.6923 151.559 9.29126H151.188L151.345 6.18579H162.155ZM183.279 5.88306V10.4631H182.918C182.801 9.58423 182.589 8.88436 182.283 8.36353C181.984 7.84269 181.554 7.42928 180.994 7.12329C180.434 6.8173 179.855 6.66431 179.256 6.66431C178.579 6.66431 178.019 6.87264 177.576 7.28931C177.133 7.69946 176.912 8.16821 176.912 8.69556C176.912 9.0992 177.052 9.46704 177.332 9.79907C177.736 10.2874 178.696 10.9384 180.213 11.7522C181.45 12.4163 182.293 12.9273 182.742 13.2854C183.198 13.637 183.546 14.0536 183.787 14.5354C184.035 15.0172 184.158 15.5217 184.158 16.0491C184.158 17.0517 183.768 17.9176 182.986 18.6467C182.212 19.3694 181.212 19.7307 179.988 19.7307C179.604 19.7307 179.243 19.7014 178.904 19.6428C178.702 19.6103 178.283 19.4931 177.645 19.2913C177.013 19.0829 176.613 18.9788 176.443 18.9788C176.281 18.9788 176.15 19.0276 176.053 19.1252C175.962 19.2229 175.893 19.4247 175.848 19.7307H175.486V15.1897H175.848C176.017 16.1402 176.245 16.8531 176.531 17.3284C176.818 17.7971 177.254 18.1877 177.84 18.5002C178.432 18.8127 179.08 18.969 179.783 18.969C180.597 18.969 181.238 18.7542 181.707 18.3245C182.182 17.8948 182.42 17.387 182.42 16.801C182.42 16.4755 182.329 16.1467 182.146 15.8147C181.971 15.4827 181.694 15.1734 181.316 14.887C181.062 14.6917 180.369 14.2782 179.236 13.6467C178.104 13.0087 177.296 12.5009 176.814 12.1233C176.339 11.7457 175.978 11.329 175.73 10.8733C175.483 10.4176 175.359 9.91626 175.359 9.36938C175.359 8.41886 175.724 7.60181 176.453 6.91821C177.182 6.22811 178.11 5.88306 179.236 5.88306C179.939 5.88306 180.685 6.05558 181.473 6.40063C181.837 6.5634 182.094 6.64478 182.244 6.64478C182.413 6.64478 182.55 6.59595 182.654 6.49829C182.765 6.39412 182.853 6.18905 182.918 5.88306H183.279ZM65.998 28.8831C67.7168 28.8831 69.2044 29.5374 70.4609 30.8459C71.724 32.148 72.3555 33.7756 72.3555 35.7288C72.3555 37.7405 71.7207 39.4104 70.4512 40.7385C69.1816 42.0667 67.6452 42.7307 65.8418 42.7307C64.0189 42.7307 62.4857 42.0829 61.2422 40.7874C60.0052 39.4918 59.3867 37.8153 59.3867 35.7581C59.3867 33.6552 60.1029 31.9397 61.5352 30.6116C62.7786 29.4592 64.2663 28.8831 65.998 28.8831ZM65.8125 29.5959C64.6276 29.5959 63.6771 30.0354 62.9609 30.9143C62.069 32.0081 61.623 33.6096 61.623 35.719C61.623 37.8805 62.0853 39.5439 63.0098 40.7092C63.7194 41.5946 64.6569 42.0374 65.8223 42.0374C67.0658 42.0374 68.0911 41.5523 68.8984 40.5823C69.7122 39.6122 70.1191 38.0823 70.1191 35.9924C70.1191 33.7268 69.6732 32.0374 68.7812 30.9241C68.0651 30.0387 67.0755 29.5959 65.8125 29.5959ZM84.173 29.1858H87.7668L95.8625 39.1174V31.4807C95.8625 30.6669 95.7714 30.1591 95.5891 29.9573C95.3482 29.6838 94.9673 29.5471 94.4465 29.5471H93.9875V29.1858H98.5969V29.5471H98.1281C97.5682 29.5471 97.1711 29.7164 96.9367 30.0549C96.7935 30.2633 96.7219 30.7385 96.7219 31.4807V42.6428H96.3703L87.6398 31.9788V40.1331C87.6398 40.9469 87.7277 41.4547 87.9035 41.6565C88.1509 41.9299 88.5318 42.0667 89.0461 42.0667H89.5148V42.428H84.9055V42.0667H85.3645C85.9309 42.0667 86.3312 41.8974 86.5656 41.5588C86.7089 41.3505 86.7805 40.8752 86.7805 40.1331V30.9241C86.3964 30.4749 86.1034 30.1786 85.9016 30.0354C85.7062 29.8922 85.4165 29.7587 85.0324 29.635C84.8436 29.5764 84.5572 29.5471 84.173 29.5471V29.1858ZM114.37 29.9084V35.1428H117.28C118.035 35.1428 118.539 35.0289 118.793 34.801C119.132 34.5015 119.321 33.9742 119.36 33.219H119.721V37.8284H119.36C119.269 37.1838 119.177 36.7704 119.086 36.5881C118.969 36.3603 118.777 36.1812 118.51 36.051C118.243 35.9208 117.833 35.8557 117.28 35.8557H114.37V40.2209C114.37 40.8069 114.396 41.165 114.448 41.2952C114.5 41.4189 114.591 41.5198 114.721 41.5979C114.851 41.6695 115.099 41.7053 115.463 41.7053H117.709C118.458 41.7053 119.002 41.6532 119.34 41.5491C119.679 41.4449 120.004 41.2398 120.317 40.9338C120.72 40.5302 121.134 39.9215 121.557 39.1077H121.948L120.805 42.428H110.6V42.0667H111.069C111.381 42.0667 111.677 41.9918 111.957 41.842C112.166 41.7379 112.306 41.5816 112.377 41.3733C112.455 41.165 112.495 40.7385 112.495 40.094V31.4905C112.495 30.6506 112.41 30.1331 112.241 29.9377C112.006 29.6773 111.616 29.5471 111.069 29.5471H110.6V29.1858H120.805L120.952 32.0862H120.571C120.434 31.3896 120.281 30.9111 120.112 30.6506C119.949 30.3902 119.705 30.1917 119.379 30.0549C119.119 29.9573 118.66 29.9084 118.002 29.9084H114.37Z" fill="#030211"/>
<path d="M6.12404 14.1926L24.1072 1.50282L42.0903 14.1926L44.0884 36.1114L24.1072 45.3403L4.12592 36.1114L6.12404 14.1926Z" stroke="#030211"/>
<path d="M9.48758 16.1355L24.1072 5.81923L38.7267 16.1355L40.3511 33.9546L24.1072 41.4574L7.86318 33.9546L9.48758 16.1355Z" stroke="#030211"/>
<path d="M12.8017 18.0472L24.1075 10.0692L35.4133 18.0472L36.6695 31.8272L24.1075 37.6294L11.5455 31.8272L12.8017 18.0472Z" stroke="#030211"/>
<path d="M16.4773 20.1703L24.1075 14.786L31.7377 20.1703L32.5855 29.4703L24.1075 33.3861L15.6296 29.4703L16.4773 20.1703Z" stroke="#030211"/>
<rect x="127.288" y="29.3225" width="57.5341" height="2.17102" fill="#030211"/>
<rect x="127.288" y="34.3889" width="57.5341" height="2.17102" fill="#030211"/>
<rect x="127.288" y="39.5764" width="57.5341" height="2.17102" fill="#030211"/>
</svg>
