<svg width="247" height="53" viewBox="0 0 247 53" fill="none" xmlns="http://www.w3.org/2000/svg">
<ellipse cx="123.713" cy="26.5753" rx="123.029" ry="26.3126" fill="#030211"/>
<path d="M59.3211 19.8322V21.2382H53.5641V25.7032H58.2381V27.1092H53.5641V33.0752H51.8351V19.8322H59.3211ZM78.1484 33.2082C76.9197 33.2082 75.7987 32.9232 74.7854 32.3532C73.772 31.7705 72.9677 30.9662 72.3724 29.9402C71.7897 28.9015 71.4984 27.7362 71.4984 26.4442C71.4984 25.1522 71.7897 23.9932 72.3724 22.9672C72.9677 21.9285 73.772 21.1242 74.7854 20.5542C75.7987 19.9715 76.9197 19.6802 78.1484 19.6802C79.3897 19.6802 80.517 19.9715 81.5304 20.5542C82.5437 21.1242 83.3417 21.9222 83.9244 22.9482C84.507 23.9742 84.7984 25.1395 84.7984 26.4442C84.7984 27.7489 84.507 28.9142 83.9244 29.9402C83.3417 30.9662 82.5437 31.7705 81.5304 32.3532C80.517 32.9232 79.3897 33.2082 78.1484 33.2082ZM78.1484 31.7072C79.073 31.7072 79.9027 31.4919 80.6374 31.0612C81.3847 30.6305 81.9674 30.0162 82.3854 29.2182C82.816 28.4202 83.0314 27.4955 83.0314 26.4442C83.0314 25.3802 82.816 24.4555 82.3854 23.6702C81.9674 22.8722 81.391 22.2579 80.6564 21.8272C79.9217 21.3965 79.0857 21.1812 78.1484 21.1812C77.211 21.1812 76.375 21.3965 75.6404 21.8272C74.9057 22.2579 74.323 22.8722 73.8924 23.6702C73.4744 24.4555 73.2654 25.3802 73.2654 26.4442C73.2654 27.4955 73.4744 28.4202 73.8924 29.2182C74.323 30.0162 74.9057 30.6305 75.6404 31.0612C76.3877 31.4919 77.2237 31.7072 78.1484 31.7072ZM104.789 33.0752L101.635 27.6602H99.5449V33.0752H97.8159V19.8322H102.091C103.092 19.8322 103.934 20.0032 104.618 20.3452C105.315 20.6872 105.834 21.1495 106.176 21.7322C106.518 22.3149 106.689 22.9799 106.689 23.7272C106.689 24.6392 106.423 25.4435 105.891 26.1402C105.372 26.8369 104.586 27.2992 103.535 27.5272L106.86 33.0752H104.789ZM99.5449 26.2732H102.091C103.028 26.2732 103.731 26.0452 104.2 25.5892C104.669 25.1205 104.903 24.4999 104.903 23.7272C104.903 22.9419 104.669 22.3339 104.2 21.9032C103.744 21.4725 103.041 21.2572 102.091 21.2572H99.5449V26.2732ZM128.261 19.8322V21.2382H124.651V33.0752H122.922V21.2382H119.293V19.8322H128.261ZM142.816 19.8322V28.2112C142.816 29.3892 143.101 30.2632 143.671 30.8332C144.253 31.4032 145.058 31.6882 146.084 31.6882C147.097 31.6882 147.889 31.4032 148.459 30.8332C149.041 30.2632 149.333 29.3892 149.333 28.2112V19.8322H151.062V28.1922C151.062 29.2942 150.84 30.2252 150.397 30.9852C149.953 31.7325 149.352 32.2899 148.592 32.6572C147.844 33.0245 147.002 33.2082 146.065 33.2082C145.127 33.2082 144.279 33.0245 143.519 32.6572C142.771 32.2899 142.176 31.7325 141.733 30.9852C141.302 30.2252 141.087 29.2942 141.087 28.1922V19.8322H142.816ZM175.093 33.0752H173.364L166.41 22.5302V33.0752H164.681V19.8132H166.41L173.364 30.3392V19.8132H175.093V33.0752ZM190.504 21.2382V25.6652H195.33V27.0902H190.504V31.6502H195.9V33.0752H188.775V19.8132H195.9V21.2382H190.504Z" fill="white"/>
</svg>
