<svg width="241" height="48" viewBox="0 0 241 48" fill="none" xmlns="http://www.w3.org/2000/svg">
<path d="M5.77188 37.0752H15.8119C17.5985 37.0752 19.1052 36.8485 20.3319 36.3952C21.5585 35.9152 22.5452 35.3019 23.2919 34.5552C24.0385 33.8085 24.5719 32.9685 24.8919 32.0352C25.2385 31.0752 25.4119 30.1152 25.4119 29.1552C25.4119 27.6352 25.0785 26.4219 24.4119 25.5152C23.7719 24.6085 22.9985 23.9152 22.0919 23.4352C21.1852 22.9552 20.2519 22.6352 19.2919 22.4752C18.3319 22.3152 17.5585 22.2219 16.9719 22.1952V22.0352C17.9052 22.0352 18.7852 21.8619 19.6119 21.5152C20.4385 21.1419 21.1585 20.6752 21.7719 20.1152C22.4119 19.5285 22.9185 18.8619 23.2919 18.1152C23.6652 17.3419 23.8519 16.5285 23.8519 15.6752C23.8519 14.9285 23.6919 14.1685 23.3719 13.3952C23.0519 12.6219 22.5585 11.9152 21.8919 11.2752C21.2519 10.6352 20.4119 10.1152 19.3719 9.71519C18.3585 9.28853 17.1585 9.07519 15.7719 9.07519H5.77188V37.0752ZM9.41188 35.3152V23.0752H13.8119C15.1185 23.0752 16.2519 23.2485 17.2119 23.5952C18.1719 23.9419 18.9585 24.4085 19.5719 24.9952C20.2119 25.5819 20.6785 26.2619 20.9719 27.0352C21.2919 27.8085 21.4519 28.6219 21.4519 29.4752C21.4519 30.4085 21.2785 31.2352 20.9319 31.9552C20.6119 32.6752 20.1719 33.2885 19.6119 33.7952C19.0519 34.3019 18.3852 34.6885 17.6119 34.9552C16.8652 35.1952 16.0652 35.3152 15.2119 35.3152H9.41188ZM9.41188 21.3152V10.8352H14.2919C15.3319 10.8352 16.2119 10.9819 16.9319 11.2752C17.6785 11.5685 18.2785 11.9552 18.7319 12.4352C19.2119 12.9152 19.5585 13.4619 19.7719 14.0752C19.9852 14.6885 20.0919 15.3019 20.0919 15.9152C20.0919 16.6885 19.9319 17.4085 19.6119 18.0752C19.3185 18.7419 18.8919 19.3152 18.3319 19.7952C17.7985 20.2752 17.1719 20.6485 16.4519 20.9152C15.7585 21.1819 15.0119 21.3152 14.2119 21.3152H9.41188ZM54.8172 9.07519V37.0752H58.4572V24.7152H60.2172C60.9639 24.7152 61.5772 24.7819 62.0572 24.9152C62.5639 25.0485 63.0172 25.2752 63.4172 25.5952C63.8172 25.9152 64.1905 26.3285 64.5372 26.8352C64.8839 27.3419 65.2972 27.9685 65.7772 28.7152L68.9372 33.3952C69.3372 34.0085 69.7239 34.5685 70.0972 35.0752C70.4972 35.5819 70.9239 36.0219 71.3772 36.3952C71.8305 36.7419 72.3372 37.0219 72.8972 37.2352C73.4839 37.4485 74.1772 37.5552 74.9772 37.5552C75.5639 37.5552 76.0439 37.5285 76.4172 37.4752C76.7905 37.4219 77.1639 37.2885 77.5372 37.0752V35.5952C77.4039 35.6219 77.2705 35.6485 77.1372 35.6752C77.0039 35.6752 76.8705 35.6752 76.7372 35.6752C76.1772 35.6752 75.6839 35.5952 75.2572 35.4352C74.8305 35.2752 74.4305 35.0485 74.0572 34.7552C73.6839 34.4352 73.3239 34.0619 72.9772 33.6352C72.6305 33.1819 72.2705 32.6752 71.8972 32.1152C70.7772 30.4885 69.9105 29.1952 69.2972 28.2352C68.6839 27.2485 68.1905 26.4885 67.8172 25.9552C67.4705 25.4219 67.1772 25.0352 66.9372 24.7952C66.7239 24.5552 66.4572 24.3552 66.1372 24.1952L65.7372 23.9952V23.8352C67.0172 23.7552 68.1105 23.4752 69.0172 22.9952C69.9505 22.5152 70.7105 21.9152 71.2972 21.1952C71.8839 20.4752 72.3105 19.7019 72.5772 18.8752C72.8439 18.0219 72.9772 17.1952 72.9772 16.3952C72.9772 15.6752 72.8305 14.8885 72.5372 14.0352C72.2705 13.1819 71.7905 12.3952 71.0972 11.6752C70.4305 10.9285 69.5105 10.3152 68.3372 9.83519C67.1639 9.32853 65.6839 9.07519 63.8972 9.07519H54.8172ZM58.4572 10.8352H62.4972C63.5105 10.8352 64.4172 10.9819 65.2172 11.2752C66.0439 11.5685 66.7505 11.9819 67.3372 12.5152C67.9239 13.0219 68.3639 13.6352 68.6572 14.3552C68.9772 15.0752 69.1372 15.8619 69.1372 16.7152C69.1372 17.4352 68.9905 18.1685 68.6972 18.9152C68.4305 19.6352 68.0172 20.3019 67.4572 20.9152C66.8972 21.5019 66.2039 21.9819 65.3772 22.3552C64.5772 22.7285 63.6439 22.9152 62.5772 22.9152H58.4572V10.8352ZM121.688 28.8352L125.528 37.0752H129.408L116.368 9.07519H114.368L102.528 37.0752H104.368L107.888 28.8352H121.688ZM120.848 27.0352H108.648L114.408 13.5552H114.568L120.848 27.0352ZM180.585 9.07519V30.4752H180.425L158.225 8.59519H158.025V37.0752H159.865V15.6752H160.025L182.225 37.5552H182.425V9.07519H180.585ZM215.009 37.0752V9.07519H224.209C226.423 9.07519 228.449 9.43519 230.289 10.1552C232.129 10.8485 233.703 11.8219 235.009 13.0752C236.343 14.3019 237.369 15.7685 238.089 17.4752C238.836 19.1819 239.209 21.0219 239.209 22.9952C239.209 25.0485 238.823 26.9419 238.049 28.6752C237.303 30.3819 236.263 31.8619 234.929 33.1152C233.623 34.3685 232.089 35.3419 230.329 36.0352C228.569 36.7285 226.689 37.0752 224.689 37.0752H215.009ZM218.649 35.3152H223.049C225.236 35.3152 227.089 34.9552 228.609 34.2352C230.156 33.4885 231.423 32.5285 232.409 31.3552C233.396 30.1819 234.116 28.8752 234.569 27.4352C235.023 25.9685 235.249 24.5152 235.249 23.0752C235.249 21.4752 234.983 19.9419 234.449 18.4752C233.916 16.9819 233.129 15.6752 232.089 14.5552C231.076 13.4085 229.809 12.5019 228.289 11.8352C226.769 11.1685 225.023 10.8352 223.049 10.8352H218.649V35.3152Z" fill="#030211"/>
</svg>
