<svg width="30" height="30" viewBox="0 0 30 30" fill="none" xmlns="http://www.w3.org/2000/svg">
<path d="M14.86 29.24C22.9344 29.24 29.48 22.6944 29.48 14.62C29.48 6.5456 22.9344 0 14.86 0C6.78559 0 0.23999 6.5456 0.23999 14.62C0.23999 22.6944 6.78559 29.24 14.86 29.24Z" fill="black"/>
<path d="M19.3904 9.09033C18.8304 9.09033 18.3904 9.54033 18.3904 10.1003C18.3904 10.6603 18.8404 11.1103 19.3904 11.1103C19.9504 11.1103 20.4004 10.6603 20.4004 10.1003C20.4004 9.54033 19.9504 9.09033 19.3904 9.09033Z" fill="white"/>
<path d="M14.9297 10.3804C12.5997 10.3804 10.7097 12.2704 10.7097 14.6004C10.7097 16.9304 12.5997 18.8204 14.9297 18.8204C17.2597 18.8204 19.1497 16.9304 19.1497 14.6004C19.1497 12.2704 17.2497 10.3804 14.9297 10.3804ZM14.9297 17.3104C13.4397 17.3104 12.2297 16.1004 12.2297 14.6104C12.2297 13.1204 13.4397 11.9104 14.9297 11.9104C16.4197 11.9104 17.6297 13.1204 17.6297 14.6104C17.6297 16.1004 16.4197 17.3104 14.9297 17.3104Z" fill="white"/>
<path d="M18.28 23.1703H11.43C8.59002 23.1703 6.28003 20.8603 6.28003 18.0203V11.1803C6.28003 8.34027 8.59002 6.03027 11.43 6.03027H18.27C21.11 6.03027 23.42 8.34027 23.42 11.1803V18.0203C23.43 20.8603 21.12 23.1703 18.28 23.1703ZM11.43 7.64027C9.48002 7.64027 7.89003 9.23027 7.89003 11.1803V18.0203C7.89003 19.9703 9.48002 21.5603 11.43 21.5603H18.27C20.22 21.5603 21.81 19.9703 21.81 18.0203V11.1803C21.81 9.23027 20.22 7.64027 18.27 7.64027H11.43Z" fill="white"/>
</svg>
