<svg width="30" height="30" viewBox="0 0 30 30" fill="none" xmlns="http://www.w3.org/2000/svg">
<path d="M15.34 29.24C23.4144 29.24 29.96 22.6944 29.96 14.62C29.96 6.5456 23.4144 0 15.34 0C7.26557 0 0.719971 6.5456 0.719971 14.62C0.719971 22.6944 7.26557 29.24 15.34 29.24Z" fill="black"/>
<path d="M9.21071 11.8999H12.0407V20.9999H9.21071V11.8999ZM10.6207 7.37988C11.5307 7.37988 12.2607 8.10988 12.2607 9.01988C12.2607 9.91988 11.5307 10.6599 10.6207 10.6599C9.71071 10.6599 8.98071 9.91988 8.98071 9.01988C8.98071 8.10988 9.72071 7.37988 10.6207 7.37988Z" fill="white"/>
<path d="M13.81 11.8999H16.52V13.1399H16.56C16.94 12.4199 17.86 11.6699 19.24 11.6699C22.1 11.6699 22.63 13.5499 22.63 15.9999V20.9899H19.8V16.5699C19.8 15.5099 19.78 14.1599 18.33 14.1599C16.86 14.1599 16.63 15.3099 16.63 16.4999V20.9999H13.8V11.8999H13.81Z" fill="white"/>
</svg>
