<svg width="30" height="30" viewBox="0 0 30 30" fill="none" xmlns="http://www.w3.org/2000/svg">
<path d="M15.1 29.24C23.1744 29.24 29.72 22.6944 29.72 14.62C29.72 6.5456 23.1744 0 15.1 0C7.02558 0 0.47998 6.5456 0.47998 14.62C0.47998 22.6944 7.02558 29.24 15.1 29.24Z" fill="black"/>
<path d="M23.1798 9.61011C22.6698 9.84011 22.1098 9.98011 21.5698 10.0701C21.8298 10.0301 22.2098 9.56011 22.3598 9.37011C22.5898 9.08011 22.7898 8.75011 22.8998 8.39011C22.9098 8.36011 22.9198 8.33011 22.8998 8.31011C22.8598 8.30011 22.8398 8.30011 22.8098 8.32011C22.1998 8.65011 21.5698 8.88011 20.8998 9.05011C20.8398 9.06011 20.7998 9.05011 20.7698 9.02011C20.7098 8.96011 20.6598 8.90011 20.5998 8.85011C20.3198 8.61011 20.0198 8.42011 19.6698 8.28011C19.2198 8.10011 18.7298 8.02011 18.2498 8.05011C17.7798 8.08011 17.3198 8.21011 16.8998 8.43011C16.4798 8.65011 16.1098 8.95011 15.8098 9.32011C15.4998 9.70011 15.2798 10.1501 15.1598 10.6201C15.0498 11.0801 15.0598 11.5301 15.1298 11.9901C15.1398 12.0701 15.1298 12.0801 15.0598 12.0701C12.4298 11.6801 10.2598 10.7401 8.4898 8.73011C8.4098 8.64011 8.3698 8.64011 8.3098 8.74011C7.5398 9.90011 7.9098 11.7601 8.8798 12.6801C9.0098 12.8001 9.1398 12.9201 9.2798 13.0401C9.2298 13.0501 8.58981 12.9801 8.00981 12.6801C7.92981 12.6301 7.8898 12.6601 7.8898 12.7501C7.8798 12.8801 7.8898 12.9901 7.9098 13.1301C8.0598 14.3001 8.8698 15.3901 9.9898 15.8201C10.1198 15.8801 10.2698 15.9201 10.4098 15.9501C10.1598 16.0101 9.8898 16.0501 9.1698 15.9901C9.0798 15.9701 9.03981 16.0201 9.07981 16.1001C9.62981 17.5901 10.8098 18.0401 11.6898 18.2901C11.8098 18.3101 11.9298 18.3101 12.0498 18.3401C12.0398 18.3501 12.0398 18.3501 12.0298 18.3601C11.7398 18.8101 10.7198 19.1401 10.2498 19.3101C9.38981 19.6101 8.44981 19.7501 7.53981 19.6601C7.38981 19.6401 7.35981 19.6401 7.31981 19.6601C7.27981 19.6801 7.30981 19.7201 7.35981 19.7601C7.53981 19.8801 7.7298 19.9901 7.9198 20.0901C8.4998 20.4001 9.0998 20.6401 9.7298 20.8101C12.9898 21.7101 16.6498 21.0501 19.0998 18.6201C21.0198 16.7101 21.6898 14.0801 21.6898 11.4501C21.6898 11.3501 21.8098 11.2901 21.8798 11.2401C22.3798 10.8601 22.7798 10.4201 23.1498 9.91011C23.2298 9.80011 23.2298 9.70011 23.2298 9.66011C23.2298 9.65011 23.2298 9.65011 23.2298 9.65011C23.2498 9.57011 23.2498 9.58011 23.1798 9.61011Z" fill="white"/>
</svg>
